<svg width="140" height="22" viewBox="0 0 140 22" fill="none" xmlns="http://www.w3.org/2000/svg">
<path d="M45.935 7.82561H41.3734C41.2901 7.23544 41.12 6.71123 40.8631 6.25298C40.6062 5.78779 40.2764 5.39204 39.8737 5.06571C39.471 4.73938 39.0058 4.48943 38.4781 4.31585C37.9574 4.14227 37.3915 4.05548 36.7805 4.05548C35.6765 4.05548 34.7149 4.32974 33.8956 4.87824C33.0763 5.41981 32.441 6.21133 31.9897 7.2528C31.5384 8.28732 31.3128 9.54403 31.3128 11.0229C31.3128 12.5435 31.5384 13.821 31.9897 14.8555C32.448 15.8901 33.0867 16.6712 33.906 17.1988C34.7253 17.7265 35.6731 17.9904 36.7493 17.9904C37.3533 17.9904 37.9122 17.9105 38.426 17.7508C38.9468 17.5911 39.4085 17.3585 39.8112 17.053C40.2139 16.7406 40.5471 16.3622 40.811 15.9178C41.0818 15.4735 41.2692 14.9666 41.3734 14.3973L45.935 14.4181C45.817 15.3971 45.5219 16.3414 45.0498 17.2509C44.5846 18.1535 43.9562 18.9624 43.1647 19.6775C42.3801 20.3857 41.4428 20.9481 40.3527 21.3647C39.2696 21.7744 38.0441 21.9792 36.6763 21.9792C34.7739 21.9792 33.0729 21.5487 31.5731 20.6878C30.0804 19.8268 28.9 18.5805 28.0321 16.9489C27.1712 15.3172 26.7407 13.3419 26.7407 11.0229C26.7407 8.69697 27.1781 6.71818 28.053 5.08654C28.9278 3.4549 30.1151 2.21208 31.6148 1.35808C33.1145 0.497126 34.8017 0.0666504 36.6763 0.0666504C37.9122 0.0666504 39.0578 0.240229 40.1132 0.587386C41.1755 0.934543 42.1163 1.44139 42.9356 2.10793C43.7549 2.76753 44.4214 3.57641 44.9352 4.53456C45.4559 5.49271 45.7892 6.58973 45.935 7.82561Z" fill="black"/>
<path d="M56.3133 22C54.6955 22 53.2965 21.6563 52.1161 20.969C50.9428 20.2746 50.0367 19.3096 49.3979 18.0737C48.7591 16.8309 48.4398 15.3902 48.4398 13.7516C48.4398 12.0991 48.7591 10.6549 49.3979 9.41905C50.0367 8.17623 50.9428 7.21114 52.1161 6.52377C53.2965 5.82945 54.6955 5.4823 56.3133 5.4823C57.931 5.4823 59.3266 5.82945 60.5 6.52377C61.6803 7.21114 62.5899 8.17623 63.2286 9.41905C63.8674 10.6549 64.1868 12.0991 64.1868 13.7516C64.1868 15.3902 63.8674 16.8309 63.2286 18.0737C62.5899 19.3096 61.6803 20.2746 60.5 20.969C59.3266 21.6563 57.931 22 56.3133 22ZM56.3341 18.5632C57.0701 18.5632 57.6845 18.3549 58.1775 17.9383C58.6705 17.5148 59.0419 16.9385 59.2919 16.2094C59.5488 15.4804 59.6772 14.6507 59.6772 13.7203C59.6772 12.7899 59.5488 11.9602 59.2919 11.2312C59.0419 10.5022 58.6705 9.9259 58.1775 9.50237C57.6845 9.07884 57.0701 8.86708 56.3341 8.86708C55.5912 8.86708 54.9663 9.07884 54.4595 9.50237C53.9596 9.9259 53.5811 10.5022 53.3243 11.2312C53.0743 11.9602 52.9493 12.7899 52.9493 13.7203C52.9493 14.6507 53.0743 15.4804 53.3243 16.2094C53.5811 16.9385 53.9596 17.5148 54.4595 17.9383C54.9663 18.3549 55.5912 18.5632 56.3341 18.5632Z" fill="black"/>
<path d="M71.5083 12.4393V21.6876H67.0717V5.69059H71.3V8.51298H71.4875C71.8416 7.5826 72.4352 6.84662 73.2684 6.30506C74.1016 5.75655 75.1118 5.4823 76.2991 5.4823C77.41 5.4823 78.3786 5.72531 79.2048 6.21133C80.031 6.69734 80.6733 7.39166 81.1315 8.29427C81.5898 9.18993 81.8189 10.2592 81.8189 11.502V21.6876H77.3822V12.2935C77.3892 11.3145 77.1392 10.5508 76.6324 10.0023C76.1255 9.44683 75.4277 9.1691 74.539 9.1691C73.9419 9.1691 73.4142 9.29755 72.956 9.55445C72.5047 9.81134 72.1506 10.1863 71.8937 10.6792C71.6437 11.1653 71.5153 11.7519 71.5083 12.4393Z" fill="black"/>
<path d="M93.8244 5.69059V9.0233H84.1908V5.69059H93.8244ZM86.3779 1.85798H90.8146V16.7718C90.8146 17.1815 90.8771 17.5009 91.002 17.73C91.127 17.9522 91.3006 18.1084 91.5228 18.1987C91.7519 18.2889 92.0157 18.334 92.3143 18.334C92.5226 18.334 92.7309 18.3167 92.9392 18.282C93.1475 18.2403 93.3072 18.2091 93.4183 18.1882L94.116 21.4897C93.8939 21.5591 93.5814 21.639 93.1787 21.7292C92.776 21.8264 92.2865 21.8855 91.7102 21.9063C90.641 21.9479 89.7037 21.8056 88.8983 21.4793C88.0998 21.153 87.4784 20.6461 87.034 19.9587C86.5897 19.2714 86.371 18.4035 86.3779 17.3551V1.85798Z" fill="black"/>
<path d="M101.276 21.9896C100.256 21.9896 99.346 21.8126 98.5475 21.4585C97.749 21.0974 97.1172 20.5663 96.652 19.865C96.1938 19.1568 95.9646 18.275 95.9646 17.2197C95.9646 16.3309 96.1278 15.5846 96.4541 14.9805C96.7805 14.3765 97.2248 13.8904 97.7872 13.5224C98.3496 13.1545 98.9884 12.8767 99.7035 12.6893C100.426 12.5018 101.182 12.3699 101.974 12.2935C102.904 12.1963 103.654 12.106 104.224 12.0227C104.793 11.9325 105.206 11.8006 105.463 11.627C105.72 11.4534 105.848 11.1965 105.848 10.8563V10.7938C105.848 10.1342 105.64 9.62388 105.223 9.26283C104.814 8.90179 104.23 8.72127 103.474 8.72127C102.675 8.72127 102.04 8.89832 101.568 9.25242C101.096 9.59958 100.783 10.037 100.63 10.5647L96.527 10.2314C96.7353 9.25936 97.145 8.41924 97.756 7.71104C98.367 6.9959 99.155 6.44739 100.12 6.06552C101.092 5.6767 102.217 5.4823 103.494 5.4823C104.383 5.4823 105.234 5.58644 106.046 5.79474C106.865 6.00303 107.591 6.32589 108.223 6.76331C108.862 7.20072 109.365 7.76312 109.733 8.45049C110.101 9.13091 110.285 9.94673 110.285 10.8979V21.6876H106.077V19.4692H105.952C105.695 19.9691 105.352 20.41 104.921 20.7919C104.491 21.1668 103.974 21.4619 103.369 21.6772C102.765 21.8855 102.068 21.9896 101.276 21.9896ZM102.547 18.9277C103.199 18.9277 103.776 18.7992 104.276 18.5423C104.775 18.2785 105.168 17.9244 105.452 17.48C105.737 17.0357 105.879 16.5323 105.879 15.9699V14.2723C105.741 14.3626 105.55 14.4459 105.307 14.5223C105.071 14.5917 104.803 14.6577 104.505 14.7201C104.206 14.7757 103.908 14.8278 103.609 14.8764C103.31 14.918 103.04 14.9562 102.797 14.9909C102.276 15.0673 101.821 15.1888 101.432 15.3554C101.044 15.5221 100.742 15.7477 100.526 16.0324C100.311 16.3101 100.203 16.6573 100.203 17.0739C100.203 17.6779 100.422 18.1396 100.86 18.459C101.304 18.7715 101.866 18.9277 102.547 18.9277Z" fill="black"/>
<path d="M120.955 22C119.316 22 117.907 21.6529 116.726 20.9585C115.553 20.2573 114.65 19.2852 114.019 18.0424C113.394 16.7996 113.081 15.3693 113.081 13.7516C113.081 12.113 113.397 10.6758 114.029 9.43988C114.668 8.19706 115.574 7.2285 116.747 6.53418C117.921 5.83293 119.316 5.4823 120.934 5.4823C122.329 5.4823 123.551 5.73572 124.6 6.24257C125.648 6.74942 126.478 7.46109 127.089 8.37758C127.7 9.29408 128.037 10.3703 128.099 11.6061H123.913C123.794 10.8077 123.482 10.1654 122.975 9.67942C122.475 9.18646 121.819 8.93998 121.007 8.93998C120.319 8.93998 119.719 9.12744 119.205 9.50237C118.698 9.87036 118.302 10.4085 118.018 11.1167C117.733 11.8249 117.591 12.6823 117.591 13.6891C117.591 14.7097 117.73 15.5776 118.007 16.2928C118.292 17.0079 118.691 17.5529 119.205 17.9279C119.719 18.3028 120.319 18.4903 121.007 18.4903C121.514 18.4903 121.968 18.3861 122.371 18.1778C122.781 17.9695 123.118 17.6675 123.381 17.2717C123.652 16.869 123.829 16.3865 123.913 15.8241H128.099C128.03 17.0461 127.697 18.1223 127.099 19.0527C126.509 19.9761 125.693 20.6982 124.652 21.2189C123.61 21.7396 122.378 22 120.955 22Z" fill="black"/>
<path d="M139.449 5.69059V9.0233H129.815V5.69059H139.449ZM132.002 1.85798H136.439V16.7718C136.439 17.1815 136.501 17.5009 136.626 17.73C136.751 17.9522 136.925 18.1084 137.147 18.1987C137.376 18.2889 137.64 18.334 137.938 18.334C138.147 18.334 138.355 18.3167 138.563 18.282C138.772 18.2403 138.931 18.2091 139.042 18.1882L139.74 21.4897C139.518 21.5591 139.206 21.639 138.803 21.7292C138.4 21.8264 137.911 21.8855 137.334 21.9063C136.265 21.9479 135.328 21.8056 134.522 21.4793C133.724 21.153 133.103 20.6461 132.658 19.9587C132.214 19.2714 131.995 18.4035 132.002 17.3551V1.85798Z" fill="black"/>
<path d="M0 21.3293V0H8.54006C10.1092 0 11.418 0.232595 12.4664 0.697785C13.5148 1.16298 14.3029 1.80869 14.8305 2.63492C15.3582 3.45421 15.6221 4.39848 15.6221 5.46772C15.6221 6.3009 15.4554 7.0334 15.1221 7.66522C14.7889 8.2901 14.3306 8.8039 13.7474 9.2066C13.1711 9.60236 12.5115 9.88355 11.7686 10.0502V10.2585C12.581 10.2932 13.3412 10.5223 14.0494 10.9459C14.7646 11.3694 15.3443 11.963 15.7887 12.7268C16.2331 13.4836 16.4552 14.3862 16.4552 15.4346C16.4552 16.5663 16.174 17.5765 15.6116 18.4653C15.0562 19.347 14.2334 20.0448 13.1434 20.5586C12.0533 21.0724 10.7098 21.3293 9.11287 21.3293H0ZM4.50957 17.6425H8.18596C9.44266 17.6425 10.3592 17.403 10.9354 16.9239C11.5117 16.4379 11.7999 15.7922 11.7999 14.9868C11.7999 14.3966 11.6575 13.8759 11.3729 13.4246C11.0882 12.9732 10.682 12.6191 10.1543 12.3623C9.6336 12.1054 9.01219 11.9769 8.2901 11.9769H4.50957V17.6425ZM4.50957 8.9254H7.85269C8.47063 8.9254 9.01913 8.81778 9.49821 8.60254C9.98423 8.38036 10.3661 8.06792 10.6438 7.66522C10.9285 7.26252 11.0708 6.77997 11.0708 6.21758C11.0708 5.44689 10.7966 4.82548 10.2481 4.35335C9.7065 3.88121 8.93582 3.64515 7.93601 3.64515H4.50957V8.9254Z" fill="black"/>
<path d="M21.6084 21.3293C20.6002 21.3293 19.7346 20.9714 19.0116 20.2555C18.2988 19.5295 17.9424 18.6603 17.9424 17.648C17.9424 16.6458 18.2988 15.7868 19.0116 15.071C19.7346 14.3552 20.6002 13.9973 21.6084 13.9973C22.586 13.9973 23.4413 14.3552 24.1745 15.071C24.9077 15.7868 25.2743 16.6458 25.2743 17.648C25.2743 18.3229 25.1012 18.9415 24.755 19.5039C24.4189 20.0561 23.976 20.501 23.4261 20.8384C22.8762 21.1656 22.2703 21.3293 21.6084 21.3293Z" fill="#8D00FF"/>
</svg>
